<svg xmlns="http://www.w3.org/2000/svg" data-name="Layer 1" viewBox="0 0 48 60" x="0px" y="0px"><title>cash</title><path d="M23.71,10.53,21.66,9l3-1.47,5-2.4a2,2,0,0,1,1.57,0l5,2.4,6.52,3.16,5,2.41c.43.21.43.55,0,.76l-5,2.41L36,19.55,34,18l6.51-3.15a1.93,1.93,0,0,1,0-2.75L33.28,8.65a14.67,14.67,0,0,1-5.68,0Zm1.18,11.9L20.4,24.61a14.67,14.67,0,0,0-5.68,0L7.53,21.12a1.93,1.93,0,0,0,0-2.75l7.12-3.45-2-1.5L5.29,17l-5,2.41c-.43.21-.43.55,0,.76l5,2.41,6.52,3.16,5,2.4a2,2,0,0,0,1.57,0l5-2.4L26.93,24v0Zm17.82-1.22,5-2.41c.43-.2.43-.55,0-.75l-2-1L36,21.75l-.09,2.77ZM19.23,29.86a3.82,3.82,0,0,1-1.67.36,3.92,3.92,0,0,1-1.66-.35L2.35,23.3l-2,1c-.43.21-.43.56,0,.76l5,2.41,6.52,3.16,5,2.4a2,2,0,0,0,1.57,0l5-2.4,3.63-1.76V26.13Zm0,4.92a4,4,0,0,1-3.33,0L2.35,28.21l-2,1c-.43.2-.43.55,0,.76l5,2.4,6.52,3.17,5,2.39a2,2,0,0,0,1.57,0l5-2.39L27,33.76V31Zm23.48-8.66,5-2.41c.43-.2.43-.55,0-.75l-2-1-9.84,4.76-.09,2.77Zm0,4.92,5-2.41c.43-.21.43-.55,0-.76l-2-1-10,4.84-.09,2.77ZM19.23,39.69a4,4,0,0,1-3.33,0L2.35,33.13l-2,1c-.43.21-.43.55,0,.76l5,2.41,6.52,3.16,5,2.4a2,2,0,0,0,1.57,0l5-2.4L27,38.67V36ZM34,20.53,19.65,10l-5,2.44,14.32,10.5L29,37.7l4.57-2.22Z"/><text x="0" y="63" fill="#000000" font-size="5px" font-weight="bold" font-family="'Helvetica Neue', Helvetica, Arial-Unicode, Arial, Sans-serif">Created by Mello</text><text x="0" y="68" fill="#000000" font-size="5px" font-weight="bold" font-family="'Helvetica Neue', Helvetica, Arial-Unicode, Arial, Sans-serif">from the Noun Project</text></svg>